<svg width="27" height="25" viewBox="0 0 27 25" fill="none" xmlns="http://www.w3.org/2000/svg">
<path d="M26.0357 21.4286H0.964286C0.708541 21.4286 0.463271 21.5226 0.282433 21.6901C0.101594 21.8575 0 22.0846 0 22.3214L0 24.1071C0 24.3439 0.101594 24.571 0.282433 24.7385C0.463271 24.9059 0.708541 25 0.964286 25H26.0357C26.2915 25 26.5367 24.9059 26.7176 24.7385C26.8984 24.571 27 24.3439 27 24.1071V22.3214C27 22.0846 26.8984 21.8575 26.7176 21.6901C26.5367 21.5226 26.2915 21.4286 26.0357 21.4286ZM26.0357 14.2857H0.964286C0.708541 14.2857 0.463271 14.3798 0.282433 14.5472C0.101594 14.7147 0 14.9418 0 15.1786L0 16.9643C0 17.2011 0.101594 17.4282 0.282433 17.5956C0.463271 17.7631 0.708541 17.8571 0.964286 17.8571H26.0357C26.2915 17.8571 26.5367 17.7631 26.7176 17.5956C26.8984 17.4282 27 17.2011 27 16.9643V15.1786C27 14.9418 26.8984 14.7147 26.7176 14.5472C26.5367 14.3798 26.2915 14.2857 26.0357 14.2857ZM26.0357 7.14286H0.964286C0.708541 7.14286 0.463271 7.23693 0.282433 7.40437C0.101594 7.57181 0 7.79891 0 8.03571L0 9.82143C0 10.0582 0.101594 10.2853 0.282433 10.4528C0.463271 10.6202 0.708541 10.7143 0.964286 10.7143H26.0357C26.2915 10.7143 26.5367 10.6202 26.7176 10.4528C26.8984 10.2853 27 10.0582 27 9.82143V8.03571C27 7.79891 26.8984 7.57181 26.7176 7.40437C26.5367 7.23693 26.2915 7.14286 26.0357 7.14286ZM26.0357 0H0.964286C0.708541 0 0.463271 0.0940686 0.282433 0.261512C0.101594 0.428955 0 0.656057 0 0.892857L0 2.67857C0 2.91537 0.101594 3.14247 0.282433 3.30992C0.463271 3.47736 0.708541 3.57143 0.964286 3.57143H26.0357C26.2915 3.57143 26.5367 3.47736 26.7176 3.30992C26.8984 3.14247 27 2.91537 27 2.67857V0.892857C27 0.656057 26.8984 0.428955 26.7176 0.261512C26.5367 0.0940686 26.2915 0 26.0357 0Z" fill="#D0604C"/>
</svg>
