<svg width="18" height="18" viewBox="0 0 18 18" fill="none" xmlns="http://www.w3.org/2000/svg">
<path d="M16.3053 17.6947C16.4939 17.8769 16.7465 17.9777 17.0087 17.9754C17.2709 17.9731 17.5217 17.8679 17.7071 17.6825C17.8925 17.4971 17.9977 17.2463 18 16.9841C18.0022 16.7219 17.9014 16.4693 17.7193 16.2807L10.4263 8.98771L17.7193 1.69471C17.9014 1.50611 18.0022 1.25351 18 0.991311C17.9977 0.729114 17.8925 0.478302 17.7071 0.292894C17.5217 0.107485 17.2709 0.00231622 17.0087 3.78025e-05C16.7465 -0.00224062 16.4939 0.0985542 16.3053 0.280712L9.01229 7.57371L1.71929 0.280712C1.53069 0.0985542 1.27808 -0.00224062 1.01589 3.78025e-05C0.753691 0.00231622 0.502878 0.107485 0.31747 0.292894C0.132062 0.478302 0.0268924 0.729114 0.0246139 0.991311C0.0223355 1.25351 0.12313 1.50611 0.305288 1.69471L7.59829 8.98771L0.305288 16.2807C0.209778 16.373 0.133596 16.4833 0.0811869 16.6053C0.0287779 16.7273 0.00119157 16.8585 3.77571e-05 16.9913C-0.00111606 17.1241 0.0241854 17.2558 0.0744663 17.3787C0.124747 17.5016 0.199 17.6132 0.292893 17.7071C0.386786 17.801 0.498438 17.8753 0.621334 17.9255C0.74423 17.9758 0.87591 18.0011 1.00869 18C1.14147 17.9988 1.27269 17.9712 1.39469 17.9188C1.5167 17.8664 1.62704 17.7902 1.71929 17.6947L9.01229 10.4017L16.3053 17.6947Z" fill="#D0604C"/>
</svg>
