<svg width="57" height="57" viewBox="0 0 57 57" fill="none" xmlns="http://www.w3.org/2000/svg">
<circle cx="28.5" cy="28.5" r="28.5" fill="#D0604C"/>
<circle cx="28.5" cy="28.5" r="28.5" fill="#D0604C"/>
<circle cx="28.5" cy="28.5" r="28.5" fill="#D0604C"/>
<path d="M27.946 23.3308C24.8406 23.3308 22.3357 25.8357 22.3357 28.9412C22.3357 32.0466 24.8406 34.5515 27.946 34.5515C31.0515 34.5515 33.5564 32.0466 33.5564 28.9412C33.5564 25.8357 31.0515 23.3308 27.946 23.3308ZM27.946 32.5886C25.9392 32.5886 24.2986 30.9529 24.2986 28.9412C24.2986 26.9294 25.9343 25.2937 27.946 25.2937C29.9578 25.2937 31.5935 26.9294 31.5935 28.9412C31.5935 30.9529 29.9529 32.5886 27.946 32.5886ZM35.0945 23.1013C35.0945 23.8289 34.5085 24.4099 33.7859 24.4099C33.0584 24.4099 32.4773 23.824 32.4773 23.1013C32.4773 22.3787 33.0632 21.7927 33.7859 21.7927C34.5085 21.7927 35.0945 22.3787 35.0945 23.1013ZM38.8103 24.4294C38.7273 22.6765 38.3269 21.1238 37.0427 19.8445C35.7634 18.5652 34.2107 18.1648 32.4578 18.0769C30.6511 17.9744 25.2361 17.9744 23.4294 18.0769C21.6814 18.1599 20.1287 18.5603 18.8445 19.8396C17.5603 21.1189 17.1648 22.6716 17.0769 24.4246C16.9744 26.2312 16.9744 31.6462 17.0769 33.4529C17.1599 35.2058 17.5603 36.7585 18.8445 38.0378C20.1287 39.3171 21.6765 39.7175 23.4294 39.8054C25.2361 39.908 30.6511 39.908 32.4578 39.8054C34.2107 39.7224 35.7634 39.322 37.0427 38.0378C38.322 36.7585 38.7224 35.2058 38.8103 33.4529C38.9128 31.6462 38.9128 26.2361 38.8103 24.4294ZM36.4763 35.3914C36.0955 36.3484 35.3582 37.0857 34.3962 37.4714C32.9558 38.0427 29.5378 37.9109 27.946 37.9109C26.3542 37.9109 22.9314 38.0378 21.4958 37.4714C20.5388 37.0906 19.8015 36.3533 19.4158 35.3914C18.8445 33.9509 18.9763 30.533 18.9763 28.9412C18.9763 27.3494 18.8494 23.9265 19.4158 22.491C19.7966 21.5339 20.5339 20.7966 21.4958 20.4109C22.9363 19.8396 26.3542 19.9714 27.946 19.9714C29.5378 19.9714 32.9607 19.8445 34.3962 20.4109C35.3533 20.7917 36.0906 21.5291 36.4763 22.491C37.0476 23.9314 36.9158 27.3494 36.9158 28.9412C36.9158 30.533 37.0476 33.9558 36.4763 35.3914Z" fill="white"/>
</svg>

